<svg xmlns="http://www.w3.org/2000/svg" width="166.2" height="226.5" viewBox="0 0 166.2 226.5"><title>Asset 4</title><g id="Layer_2" data-name="Layer 2"><g id="Layer_1-2" data-name="Layer 1"><polygon points="83.1 224.5 164.2 2 2 2 83.1 224.5" fill="#f0de7f" stroke="#70683f" stroke-linecap="round" stroke-linejoin="round" stroke-width="4"/><path d="M51.7,68.4l5.4-10.9-7.6-3.3L44.1,65.1l-7.5-3.3,5.5-10.9-7.8-3.4,2.8-6.4,8.1,3.6,6.2-12.4-8.7-3.8,2.8-6.3,9,3.9,5.4-10.9,7.5,3.3L61.9,29.4l7.7,3.3L75,21.8l7.5,3.3L77,36l7.7,3.4-2.8,6.4-8-3.6L67.7,54.6l8.7,3.8-2.8,6.4-9-4L59.1,71.7Zm8.6-17.1L66.5,39l-7.7-3.4L52.7,48Z" fill="#70683f"/></g></g></svg>