<svg id="Layer_1" data-name="Layer 1" xmlns="http://www.w3.org/2000/svg" width="176" height="234" viewBox="0 0 176 234"><title>cone</title><polygon points="88.3 229.4 169.5 6.9 7.2 6.9 88.3 229.4" fill="#f0de7f" stroke="#70683f" stroke-linecap="round" stroke-linejoin="round" stroke-width="4"/><path d="M57,73.3l5.4-10.9-7.6-3.3L49.3,70l-7.5-3.3,5.5-10.9-7.7-3.4L42.4,46l8,3.6,6.2-12.4-8.7-3.8,2.8-6.3,9,3.9,5.5-10.9,7.4,3.3L67.2,34.3l7.6,3.3,5.4-10.9L87.7,30,82.2,40.9l7.7,3.4-2.8,6.4-8-3.6L73,59.5l8.6,3.8-2.8,6.4-9-4L64.4,76.6Zm8.5-17.1,6.2-12.3L64,40.5,57.9,52.9Z" fill="#70683f"/></svg>