<svg xmlns="http://www.w3.org/2000/svg" width="186.1" height="186.1" viewBox="0 0 186.1 186.1"><title>Asset 5</title><g id="Layer_2" data-name="Layer 2"><g id="Layer_1-2" data-name="Layer 1"><circle cx="93" cy="93" r="91" fill="#bdffd9" stroke="#7ba68d" stroke-miterlimit="10" stroke-width="4"/><line x1="33.1" y1="49.5" x2="44.3" y2="57" fill="#bdffd9" stroke="#512500" stroke-linecap="round" stroke-linejoin="round" stroke-width="4"/><line x1="69.8" y1="142.2" x2="62.3" y2="153.4" fill="#bdffd9" stroke="#512500" stroke-linecap="round" stroke-linejoin="round" stroke-width="4"/><line x1="136.1" y1="55.1" x2="128.6" y2="66.3" fill="#bdffd9" stroke="#512500" stroke-linecap="round" stroke-linejoin="round" stroke-width="4"/><line x1="160.5" y1="97.2" x2="168" y2="105.7" fill="#bdffd9" stroke="#512500" stroke-linecap="round" stroke-linejoin="round" stroke-width="4"/><line x1="85.4" y1="151.2" x2="92.9" y2="159.6" fill="#bdffd9" stroke="#512500" stroke-linecap="round" stroke-linejoin="round" stroke-width="4"/><line x1="103" y1="26.6" x2="110.5" y2="35.1" fill="#bdffd9" stroke="#512500" stroke-linecap="round" stroke-linejoin="round" stroke-width="4"/><line x1="125.8" y1="107.3" x2="112.1" y2="119" fill="#bdffd9" stroke="#512500" stroke-linecap="round" stroke-linejoin="round" stroke-width="4"/><line x1="160.9" y1="57" x2="148.2" y2="74.4" fill="#bdffd9" stroke="#512500" stroke-linecap="round" stroke-linejoin="round" stroke-width="4"/><line x1="50.3" y1="126.5" x2="37.5" y2="144" fill="#bdffd9" stroke="#512500" stroke-linecap="round" stroke-linejoin="round" stroke-width="4"/><line x1="85.1" y1="65.9" x2="93.1" y2="72.4" fill="#bdffd9" stroke="#512500" stroke-linecap="round" stroke-linejoin="round" stroke-width="4"/><line x1="132.4" y1="138.9" x2="140.3" y2="145.5" fill="#bdffd9" stroke="#512500" stroke-linecap="round" stroke-linejoin="round" stroke-width="4"/><line x1="21.8" y1="93" x2="38.7" y2="101.5" fill="#bdffd9" stroke="#512500" stroke-linecap="round" stroke-linejoin="round" stroke-width="4"/><line x1="69.4" y1="97.2" x2="62.6" y2="107.3" fill="#bdffd9" stroke="#512500" stroke-linecap="round" stroke-linejoin="round" stroke-width="4"/><line x1="66" y1="19.5" x2="80.9" y2="28.9" fill="#bdffd9" stroke="#512500" stroke-linecap="round" stroke-linejoin="round" stroke-width="4"/></g></g></svg>