<svg id="Layer_1" data-name="Layer 1" xmlns="http://www.w3.org/2000/svg" width="190" height="190" viewBox="0 0 190 190"><title>mint-chip</title><circle cx="95" cy="95" r="91" fill="#bdffd9" stroke="#7ba68d" stroke-miterlimit="10" stroke-width="4"/><line x1="35.1" y1="51.4" x2="46.2" y2="58.9" fill="#bdffd9" stroke="#512500" stroke-linecap="round" stroke-linejoin="round" stroke-width="4"/><line x1="71.7" y1="144.2" x2="64.2" y2="155.4" fill="#bdffd9" stroke="#512500" stroke-linecap="round" stroke-linejoin="round" stroke-width="4"/><line x1="138.1" y1="57.1" x2="130.6" y2="68.3" fill="#bdffd9" stroke="#512500" stroke-linecap="round" stroke-linejoin="round" stroke-width="4"/><line x1="162.4" y1="99.2" x2="169.9" y2="107.6" fill="#bdffd9" stroke="#512500" stroke-linecap="round" stroke-linejoin="round" stroke-width="4"/><line x1="87.3" y1="153.2" x2="94.8" y2="161.6" fill="#bdffd9" stroke="#512500" stroke-linecap="round" stroke-linejoin="round" stroke-width="4"/><line x1="105" y1="28.6" x2="112.5" y2="37" fill="#bdffd9" stroke="#512500" stroke-linecap="round" stroke-linejoin="round" stroke-width="4"/><line x1="127.8" y1="109.3" x2="114" y2="121" fill="#bdffd9" stroke="#512500" stroke-linecap="round" stroke-linejoin="round" stroke-width="4"/><line x1="162.9" y1="58.9" x2="150.2" y2="76.4" fill="#bdffd9" stroke="#512500" stroke-linecap="round" stroke-linejoin="round" stroke-width="4"/><line x1="52.2" y1="128.5" x2="39.5" y2="145.9" fill="#bdffd9" stroke="#512500" stroke-linecap="round" stroke-linejoin="round" stroke-width="4"/><line x1="87.1" y1="67.8" x2="95.1" y2="74.4" fill="#bdffd9" stroke="#512500" stroke-linecap="round" stroke-linejoin="round" stroke-width="4"/><line x1="134.3" y1="140.9" x2="142.3" y2="147.5" fill="#bdffd9" stroke="#512500" stroke-linecap="round" stroke-linejoin="round" stroke-width="4"/><line x1="23.8" y1="95" x2="40.6" y2="103.4" fill="#bdffd9" stroke="#512500" stroke-linecap="round" stroke-linejoin="round" stroke-width="4"/><line x1="71.4" y1="99.2" x2="64.6" y2="109.3" fill="#bdffd9" stroke="#512500" stroke-linecap="round" stroke-linejoin="round" stroke-width="4"/><line x1="68" y1="21.5" x2="82.8" y2="30.8" fill="#bdffd9" stroke="#512500" stroke-linecap="round" stroke-linejoin="round" stroke-width="4"/></svg>